<svg id="visual" viewBox="0 0 900 600" width="900" height="600" xmlns="http://www.w3.org/2000/svg" xmlns:xlink="http://www.w3.org/1999/xlink" version="1.1"><g><g transform="translate(592 500)"><path d="M54.7 -68.4C70.3 -52.1 82 -34.3 87.6 -13.8C93.1 6.7 92.6 29.9 83.1 49.5C73.6 69.1 55.2 85.1 34.8 90.1C14.5 95.1 -7.9 89.1 -29.7 81.3C-51.5 73.5 -72.9 63.9 -84.9 47.1C-96.8 30.3 -99.4 6.1 -91.6 -12.3C-83.8 -30.8 -65.5 -43.5 -48.5 -59.6C-31.5 -75.6 -15.8 -94.9 1.9 -97.2C19.5 -99.4 39.1 -84.6 54.7 -68.4Z" fill="#6600FF"></path></g><g transform="translate(31 2)"><path d="M46.4 -51.4C58.9 -44.8 66.9 -29 67.5 -13.6C68.2 1.7 61.5 16.7 52.3 28C43.1 39.2 31.5 46.9 18.6 51.9C5.7 57 -8.4 59.5 -21.1 55.8C-33.8 52.2 -45.1 42.3 -50.8 30.3C-56.5 18.4 -56.7 4.2 -54.2 -9.5C-51.8 -23.2 -46.7 -36.5 -37.3 -43.6C-27.8 -50.7 -13.9 -51.7 1.5 -53.5C17 -55.3 33.9 -58 46.4 -51.4Z" fill="#6600FF"></path></g><g transform="translate(583 134)"><path d="M41.7 -49.4C52.4 -40.7 58.4 -26 60.1 -11.3C61.8 3.4 59.4 18.1 51.7 28.5C44.1 38.8 31.2 44.7 17.4 51.1C3.6 57.4 -11.1 64.3 -24.2 61.6C-37.2 58.9 -48.6 46.8 -53.6 33.3C-58.6 19.8 -57.3 4.9 -54.3 -9.1C-51.3 -23.2 -46.6 -36.6 -37.2 -45.5C-27.9 -54.5 -14 -59 0.8 -59.9C15.5 -60.9 31 -58.1 41.7 -49.4Z" fill="#6600FF"></path></g><g transform="translate(341 209)"><path d="M52.8 -62.5C68.3 -49.9 80.6 -33.1 85.2 -14C89.8 5.1 86.6 26.6 74.9 39.7C63.1 52.8 42.9 57.5 24.8 61C6.7 64.5 -9.3 66.9 -24.4 63.1C-39.5 59.3 -53.9 49.3 -64.8 35.1C-75.8 20.9 -83.4 2.4 -79 -12.4C-74.6 -27.3 -58.2 -38.5 -43 -51.2C-27.8 -63.8 -13.9 -77.9 2.4 -80.7C18.6 -83.5 37.3 -75.1 52.8 -62.5Z" fill="#6600FF"></path></g><g transform="translate(150 376)"><path d="M42.6 -53.6C51.8 -43.1 53.3 -26.4 56.4 -9.9C59.4 6.7 63.8 23 58.8 35.9C53.7 48.8 39.2 58.2 22.9 65.2C6.5 72.1 -11.5 76.7 -26.5 71.7C-41.4 66.7 -53.3 52.2 -60.6 36.5C-67.8 20.8 -70.5 3.9 -66.5 -10.5C-62.5 -24.9 -51.8 -36.9 -39.6 -46.9C-27.4 -56.8 -13.7 -64.6 1.5 -66.4C16.7 -68.3 33.5 -64.1 42.6 -53.6Z" fill="#6600FF"></path></g><g transform="translate(836 278)"><path d="M46.1 -56C58 -45 64.6 -28.8 69.7 -10.7C74.9 7.5 78.6 27.5 71.4 42.4C64.2 57.3 46.1 67.2 27.9 71.7C9.6 76.2 -8.8 75.4 -28.3 71.2C-47.8 66.9 -68.5 59.2 -78.5 44.2C-88.5 29.2 -87.7 7 -84.2 -15.1C-80.6 -37.2 -74.3 -59.1 -59.8 -69.7C-45.3 -80.2 -22.7 -79.3 -2.8 -76C17.1 -72.7 34.3 -67 46.1 -56Z" fill="#6600FF"></path></g><g transform="translate(863 48)"><path d="M54.1 -61.6C68.9 -52.2 78.6 -33.9 79.6 -15.9C80.5 2.1 72.8 19.8 63.4 37.1C54 54.3 43 71.1 28.7 74.5C14.3 77.8 -3.3 67.8 -20.1 59.7C-36.8 51.7 -52.6 45.6 -63.8 33.4C-75 21.2 -81.6 2.8 -79.2 -14.5C-76.8 -31.8 -65.4 -48.1 -50.7 -57.5C-36 -66.9 -18 -69.4 0.8 -70.4C19.7 -71.4 39.4 -70.9 54.1 -61.6Z" fill="#6600FF"></path></g><g transform="translate(38 584)"><path d="M46.8 -51.2C61.2 -43.6 73.9 -29.4 78.1 -12.7C82.3 4 78 23.3 67.1 35.4C56.1 47.4 38.5 52.3 22.5 55.4C6.4 58.5 -7.9 59.9 -21.2 56C-34.4 52.1 -46.5 43 -53.7 30.8C-60.9 18.7 -63.3 3.5 -63.4 -13.8C-63.5 -31.2 -61.2 -50.7 -50.3 -58.9C-39.3 -67.1 -19.7 -63.9 -1.7 -61.8C16.2 -59.7 32.3 -58.8 46.8 -51.2Z" fill="#6600FF"></path></g><g transform="translate(352 563)"><path d="M48.9 -54.7C65.8 -44.2 83.5 -31 90.8 -12.7C98 5.7 94.8 29.3 82.5 45C70.3 60.7 49.1 68.6 28.8 73.7C8.5 78.7 -10.8 80.8 -26.4 74.3C-42 67.9 -53.9 52.9 -62.1 36.8C-70.3 20.6 -74.9 3.3 -73.8 -14.7C-72.6 -32.7 -65.7 -51.4 -52.5 -62.6C-39.2 -73.7 -19.6 -77.3 -1.8 -75.2C16 -73 32.1 -65.2 48.9 -54.7Z" fill="#6600FF"></path></g><g transform="translate(882 539)"><path d="M46 -53.7C60.9 -42.4 75 -29 78.5 -13.3C81.9 2.5 74.7 20.7 63.2 32.7C51.7 44.7 36.1 50.5 20.2 56.8C4.3 63.1 -11.8 70 -24.7 66.1C-37.7 62.2 -47.4 47.6 -54.6 32.7C-61.7 17.8 -66.4 2.6 -63.4 -10.7C-60.5 -24 -50 -35.5 -38.1 -47.4C-26.3 -59.3 -13.1 -71.5 1.2 -73C15.6 -74.4 31.1 -65.1 46 -53.7Z" fill="#6600FF"></path></g></g></svg>