<svg id="visual" viewBox="0 0 900 600" width="900" height="600" xmlns="http://www.w3.org/2000/svg" xmlns:xlink="http://www.w3.org/1999/xlink" version="1.1"><rect width="900" height="600" fill="#931F1F"></rect><g><g transform="translate(882 142)"><path d="M63.1 -76.1C75.4 -64.9 74.4 -39 81.7 -12.3C88.9 14.4 104.4 41.8 99.8 65C95.2 88.1 70.5 107 44.6 111.7C18.7 116.5 -8.4 107 -30 94.1C-51.5 81.1 -67.5 64.6 -82.5 44.7C-97.6 24.7 -111.8 1.3 -108.4 -19.3C-105 -39.9 -84 -57.5 -63 -67.1C-42 -76.7 -21 -78.2 2.2 -80.9C25.4 -83.5 50.9 -87.2 63.1 -76.1Z" fill="#F7760E"></path></g><g transform="translate(524 162)"><path d="M62.9 -68.8C81.5 -59.4 96.5 -39.5 95.4 -20.6C94.3 -1.6 77 16.5 63.1 32.4C49.1 48.4 38.4 62.3 21.4 76C4.3 89.7 -19.1 103.2 -40.7 100.3C-62.4 97.5 -82.3 78.3 -94.7 55.4C-107.1 32.5 -111.9 5.9 -108.6 -20.2C-105.3 -46.4 -93.7 -72.2 -74.3 -81.5C-54.8 -90.8 -27.4 -83.6 -2.6 -80.5C22.2 -77.4 44.3 -78.3 62.9 -68.8Z" fill="#F7760E"></path></g><g transform="translate(744 543)"><path d="M57.3 -65.3C72.9 -55.3 83.1 -35.9 87.7 -14.8C92.2 6.3 91 29.1 79.3 42.3C67.5 55.5 45.2 59.1 26.9 59.5C8.6 59.8 -5.6 57 -17.5 51.3C-29.5 45.6 -39.3 37 -53.5 24.8C-67.7 12.7 -86.4 -2.9 -84.3 -14.9C-82.2 -26.9 -59.4 -35.3 -41.9 -45C-24.4 -54.7 -12.2 -65.7 4.3 -70.9C20.9 -76.1 41.8 -75.4 57.3 -65.3Z" fill="#F7760E"></path></g><g transform="translate(84 79)"><path d="M57.3 -61.1C78.6 -50.4 103.3 -36.5 112.1 -15.5C120.9 5.5 113.9 33.6 97.8 51.7C81.7 69.9 56.5 78.1 33.6 82C10.6 85.9 -10.2 85.6 -29.8 79.5C-49.3 73.4 -67.5 61.5 -74.3 45.1C-81.1 28.8 -76.5 8.1 -71.3 -11C-66 -30.1 -60.3 -47.6 -48.3 -60C-36.4 -72.4 -18.2 -79.7 -0.1 -79.6C18 -79.5 36 -71.9 57.3 -61.1Z" fill="#F7760E"></path></g><g transform="translate(214 400)"><path d="M57 -65C80.2 -48.4 109.7 -36.5 112.5 -20C115.2 -3.5 91 17.6 73 35.9C54.9 54.1 43 69.6 27.4 75.3C11.9 80.9 -7.2 76.6 -26 70.3C-44.9 64 -63.4 55.6 -77.6 40.3C-91.8 25 -101.7 2.6 -97.1 -16C-92.5 -34.7 -73.4 -49.7 -54.8 -67.1C-36.2 -84.5 -18.1 -104.3 -0.6 -103.6C16.9 -102.9 33.7 -81.6 57 -65Z" fill="#F7760E"></path></g></g></svg>