<svg id="visual" viewBox="0 0 900 600" width="900" height="600" xmlns="http://www.w3.org/2000/svg" xmlns:xlink="http://www.w3.org/1999/xlink" version="1.1"><rect width="900" height="600" fill="#931F1F"></rect><g><g transform="translate(882 142)"><path d="M87 -64C107.6 -43.5 115.8 -7.6 104.8 17.4C93.9 42.4 64 56.5 35.3 68.6C6.6 80.6 -20.9 90.5 -42.3 82.3C-63.7 74.1 -79 47.8 -80.7 23.3C-82.4 -1.2 -70.4 -23.9 -54.7 -43.3C-39 -62.7 -19.5 -78.7 6.8 -84.2C33.2 -89.7 66.4 -84.5 87 -64Z" fill="#F7760E"></path></g><g transform="translate(524 162)"><path d="M54.4 -41.8C73.7 -19.2 94.8 3.6 92.8 24.7C90.8 45.8 65.7 65.1 41.3 71.2C16.9 77.3 -6.7 70.2 -29.2 59.8C-51.6 49.3 -72.8 35.4 -74.8 19.2C-76.8 3 -59.7 -15.5 -44.1 -37.3C-28.4 -59 -14.2 -84.1 1.7 -85.4C17.5 -86.8 35.1 -64.4 54.4 -41.8Z" fill="#F7760E"></path></g><g transform="translate(744 543)"><path d="M53.4 -40.3C70 -21.8 84.8 0.5 80 16.9C75.2 33.4 50.8 44.1 29.6 49.8C8.4 55.6 -9.6 56.4 -20.7 48.8C-31.7 41.2 -35.9 25.2 -43.3 6.1C-50.6 -13 -61.2 -35.1 -54.6 -51.4C-47.9 -67.7 -23.9 -78.2 -2.8 -75.9C18.4 -73.7 36.8 -58.9 53.4 -40.3Z" fill="#F7760E"></path></g><g transform="translate(84 79)"><path d="M56.9 -45.8C72.3 -26.1 82.3 -2.5 81.3 25.2C80.3 52.8 68.2 84.6 45.2 96.8C22.2 109 -11.6 101.7 -32.8 85C-53.9 68.3 -62.2 42.2 -68.5 15.4C-74.8 -11.3 -78.9 -38.8 -67.1 -57.7C-55.4 -76.7 -27.7 -87.1 -3.5 -84.4C20.8 -81.6 41.5 -65.6 56.9 -45.8Z" fill="#F7760E"></path></g><g transform="translate(214 400)"><path d="M79.9 -66.5C96.5 -42.9 98.1 -10.1 91.9 22.5C85.7 55.1 71.7 87.5 48.2 98.1C24.7 108.6 -8.4 97.3 -32.5 80.7C-56.6 64 -71.7 41.9 -78 17C-84.3 -7.9 -81.8 -35.5 -67.3 -58.6C-52.9 -81.7 -26.4 -100.3 2.6 -102.3C31.7 -104.4 63.3 -90.1 79.9 -66.5Z" fill="#F7760E"></path></g></g></svg>