<svg id="visual" viewBox="0 0 900 600" width="900" height="600" xmlns="http://www.w3.org/2000/svg" xmlns:xlink="http://www.w3.org/1999/xlink" version="1.1"><g><g transform="translate(721 223)"><path d="M71.9 -40C86.5 -16.3 87 17.1 72.7 36C58.3 54.9 29.2 59.2 3.4 57.3C-22.4 55.4 -44.9 47.1 -57.4 29.3C-69.9 11.5 -72.4 -15.9 -61.2 -37.7C-50 -59.5 -25 -75.8 1.8 -76.9C28.7 -77.9 57.4 -63.8 71.9 -40Z" fill="#F7760E"></path></g><g transform="translate(84 121)"><path d="M40.6 -30.2C48.7 -9.5 48.5 9.2 40.4 23.8C32.3 38.3 16.1 48.7 -4.3 51.2C-24.8 53.7 -49.6 48.3 -59.8 32.6C-70 16.8 -65.6 -9.3 -53.2 -32.5C-40.8 -55.8 -20.4 -76.3 -2.1 -75.1C16.3 -73.9 32.5 -51 40.6 -30.2Z" fill="#F7760E"></path></g><g transform="translate(523 338)"><path d="M65 -41.9C73.7 -22.5 63 3.8 48.9 26.8C34.8 49.7 17.4 69.3 -1.4 70.1C-20.1 70.9 -40.2 52.8 -50.7 32C-61.1 11.1 -62 -12.5 -51.9 -32.7C-41.8 -52.9 -20.9 -69.6 3.6 -71.7C28.2 -73.8 56.3 -61.3 65 -41.9Z" fill="#F7760E"></path></g><g transform="translate(389 45)"><path d="M48.7 -21.7C62.2 -4.8 71.5 20.9 62.7 36.4C53.9 51.8 26.9 57 -1.4 57.8C-29.8 58.6 -59.7 55.1 -74.4 36.3C-89.2 17.4 -88.9 -16.9 -74 -34.6C-59.1 -52.3 -29.5 -53.5 -6 -50.1C17.6 -46.6 35.2 -38.6 48.7 -21.7Z" fill="#F7760E"></path></g><g transform="translate(511 591)"><path d="M59 -28.2C72 -11.7 74.8 16.5 63.3 35.2C51.7 53.9 25.9 63 3.5 61C-18.9 59 -37.8 45.9 -48.3 27.8C-58.9 9.7 -61 -13.4 -51.5 -27.9C-42.1 -42.4 -21 -48.3 1 -48.9C23.1 -49.5 46.1 -44.7 59 -28.2Z" fill="#F7760E"></path></g><g transform="translate(290 400)"><path d="M45.8 -25.2C55 -10.5 55.1 10.7 45.9 33.5C36.8 56.3 18.4 80.8 -2.9 82.4C-24.1 84.1 -48.2 62.9 -63.5 36.5C-78.8 10.1 -85.4 -21.5 -73.3 -37.8C-61.3 -54.1 -30.6 -55.2 -6.2 -51.6C18.3 -48 36.6 -39.9 45.8 -25.2Z" fill="#F7760E"></path></g><g transform="translate(758 540)"><path d="M50.9 -29.8C60.2 -13.2 58.1 9.6 47.8 26.2C37.4 42.8 18.7 53.2 -3.6 55.3C-26 57.4 -51.9 51.2 -65.6 32.7C-79.2 14.3 -80.4 -16.4 -67.4 -35.2C-54.4 -53.9 -27.2 -60.6 -3.2 -58.7C20.8 -56.8 41.5 -46.4 50.9 -29.8Z" fill="#F7760E"></path></g><g transform="translate(42 487)"><path d="M50 -30.6C61.4 -9 65 15.3 55.4 31C45.8 46.7 22.9 53.7 -3 55.4C-28.9 57.2 -57.9 53.7 -72.2 35.2C-86.6 16.8 -86.3 -16.4 -71.9 -39.7C-57.4 -63 -28.7 -76.2 -4.7 -73.5C19.3 -70.8 38.5 -52.1 50 -30.6Z" fill="#F7760E"></path></g><g transform="translate(805 15)"><path d="M55.6 -36.4C63.9 -17.6 57 5.7 45.2 30.3C33.4 55 16.7 81.1 -6.6 84.9C-29.8 88.7 -59.6 70.2 -74.7 43.6C-89.8 17 -90.1 -17.6 -75.1 -40.1C-60.2 -62.7 -30.1 -73.3 -3.3 -71.4C23.6 -69.5 47.2 -55.2 55.6 -36.4Z" fill="#F7760E"></path></g></g></svg>